<svg width="48" height="48" viewBox="0 0 48 48" fill="none" xmlns="http://www.w3.org/2000/svg">
<path fill-rule="evenodd" clip-rule="evenodd" d="M24 4C25.1046 4 26 4.89544 26 6V42C26 43.1046 25.1046 44 24 44C22.8954 44 22 43.1046 22 42V6C22 4.89544 22.8954 4 24 4Z" fill="#F47A20"/>
<path fill-rule="evenodd" clip-rule="evenodd" d="M10.5858 28.5857C11.3668 27.8047 12.6332 27.8047 13.4142 28.5857L24 39.1715L34.5858 28.5857C35.3668 27.8047 36.6332 27.8047 37.4142 28.5857C38.1952 29.3668 38.1952 30.6331 37.4142 31.4141L25.4142 43.4141C24.6332 44.1951 23.3668 44.1951 22.5858 43.4141L10.5858 31.4141C9.80474 30.6331 9.80474 29.3668 10.5858 28.5857Z" fill="#F47A20"/>
</svg>
