<svg width="1302" height="200" viewBox="0 0 1302 200" fill="none" xmlns="http://www.w3.org/2000/svg">
<g clip-path="url(#clip0_878_124)">
<path fill-rule="evenodd" clip-rule="evenodd" d="M127.53 54.62L133.43 41.63C133.43 41.63 116.91 27.47 103.91 27.47C90.9102 27.47 82.6602 27.47 75.5702 36.91C68.4802 46.36 68.4802 51.08 68.4802 51.08C68.4802 51.08 44.8702 58.17 44.8702 81.8C44.8702 105.4 53.1202 108.94 61.3802 113.66C69.6702 118.39 72.0402 118.39 72.0402 118.39V134.94C72.0402 134.94 42.4802 133.75 42.4802 146.74C42.4802 159.73 43.6702 166.83 59.0202 170.36C74.3902 173.89 92.1002 171.54 101.55 170.36C110.99 169.18 112.16 169.18 112.16 169.18C112.16 169.18 128.69 169.18 141.7 165.64C154.67 162.1 159.41 144.39 159.41 144.39L160.58 132.59H146.41C146.41 132.59 141.7 145.57 139.33 152.66C136.98 159.73 125.14 163.27 125.14 163.27C125.14 163.27 139.33 146.74 139.33 129.06C139.33 111.32 113.36 108.95 113.36 108.95L86.2002 103.05L80.3002 62.91C80.3002 62.91 93.2802 62.91 100.35 65.28C107.46 67.65 114.52 77.08 114.52 77.08L127.52 62.91C127.52 62.91 114.52 52.27 101.55 52.27H81.4702C81.4702 52.27 81.4702 36.92 96.8202 36.92C112.17 36.92 127.52 54.64 127.52 54.64M69.6702 68.81V98.34C69.6702 98.34 56.6602 95.98 56.6602 82.98C56.6602 69.98 69.6702 68.81 69.6702 68.81ZM88.5602 121.95C88.5602 121.95 103.91 120.76 114.53 123.12C125.15 125.49 125.15 144.39 121.62 150.29C118.08 156.21 105.09 159.74 105.09 159.74C105.09 159.74 105.09 153.85 96.8302 149.14C88.5602 144.4 83.8402 144.4 83.8402 144.4L88.5702 121.96L88.5602 121.95ZM70.8502 149.13C70.8502 149.13 69.6702 158.55 62.5802 158.55C55.4902 158.55 50.7602 151.48 59.0302 147.92C67.3202 144.39 70.8502 149.13 70.8502 149.13ZM86.2102 156.2C79.1102 156.2 73.2002 156.2 72.0502 163.27C70.8502 170.36 90.9402 164.46 90.9402 164.46C90.9402 164.46 93.2902 156.2 86.2102 156.2ZM99.9102 197.86C96.3402 198.1 92.9002 198.37 89.7302 198.71C67.3102 201.06 43.6702 199.9 30.6902 180.99C17.7002 162.1 17.7002 137.3 17.7002 137.3C17.7002 137.3 -0.00976562 118.4 -0.00976562 93.61C-0.00976562 68.82 15.3302 53.44 31.8602 45.19C48.3802 36.92 48.3802 34.56 62.5702 18.02C76.7602 1.47999 94.4602 0.27999 94.4602 0.27999C94.4602 0.27999 97.4602 -0.0800095 101.56 0.0199905L106.99 0.65999C106.99 0.65999 124.7 1.82999 138.86 18.36C153.04 34.88 153.04 37.25 169.57 45.51C186.11 53.78 201.47 69.15 201.47 93.95C201.47 118.73 183.74 137.63 183.74 137.63C183.74 137.63 183.74 162.41 170.76 181.31C157.77 200.23 134.15 201.41 111.71 199.04C108.07 198.67 104.08 198.33 99.9102 198.04V197.84V197.86ZM99.9102 13.35C91.5102 13.64 75.0202 15.34 67.3102 23.95C56.6602 35.74 50.7502 41.65 36.5902 49.92C22.4102 58.19 8.25023 73.55 10.6202 93.62C12.9902 113.68 25.9802 138.49 25.9802 138.49C25.9802 138.49 29.5102 184.54 59.0202 189.27C72.2102 191.38 87.4902 191.35 101.55 190.59C115.11 191.7 129.75 191.62 142.41 189.61C171.92 184.86 175.47 138.82 175.47 138.82C175.47 138.82 188.45 114.01 190.82 93.95C193.18 73.87 179.02 58.51 164.86 50.24C150.68 41.97 144.78 36.07 134.14 24.27C125.87 15.07 107.6 13.74 99.9002 13.63V13.33L99.9102 13.35Z" fill="#141414"/>
<path d="M1267.52 64.5798H1284.96L1276.21 42.3398L1267.52 64.5798ZM1266.17 67.8198L1261.79 79.1498H1266.63V82.4498H1254.97V79.1498H1257.8L1276 32.9098H1279.91L1298.11 79.1498H1300.94V82.4498H1286.24V79.1498H1290.68L1286.3 67.8198H1266.16H1266.17ZM1203.4 79.1498V36.9498H1198.54V33.7098H1211.42L1225.11 69.4998L1239.27 33.7098H1250.87V36.9498H1246.01V79.1498H1250.87V82.4498H1234.69V79.1498H1239.54L1239.47 43.0098L1225.31 78.8098H1222.08L1207.86 41.5998V79.1498H1213.12V82.4498H1198.56V79.1498H1203.42H1203.4ZM1164.77 57.6398H1166.86C1170.99 57.6398 1174.12 56.6798 1176.23 54.7398C1178.34 52.8098 1179.4 49.9498 1179.4 46.1798C1179.4 42.6798 1178.44 40.2598 1176.54 38.9298C1174.63 37.5998 1171.11 36.9398 1165.99 36.9398H1164.78V57.6298L1164.77 57.6398ZM1164.77 60.9398V79.1398H1169.69V82.4398H1153.04V79.1398H1157.9V36.9398H1153.04V33.6998H1170.3C1175.74 33.6998 1179.84 34.7098 1182.6 36.7298C1185.36 38.7498 1186.74 41.8298 1186.74 45.9598C1186.74 49.1998 1186.1 51.6798 1184.82 53.4098C1183.54 55.1398 1182.29 56.4198 1181.08 57.2498C1179.87 58.0798 1178.36 58.8298 1176.56 59.5098L1189.59 79.1198H1193.21V82.4398H1183.1L1169.75 60.9398H1164.76H1164.77ZM1115.1 64.5798H1132.54L1123.79 42.3398L1115.1 64.5798ZM1113.75 67.8198L1109.37 79.1498H1114.21V82.4498H1102.55V79.1498H1105.38L1123.58 32.9098H1127.49L1145.69 79.1498H1148.52V82.4498H1133.82V79.1498H1138.26L1133.88 67.8198H1113.75ZM1084.08 82.4498H1067.09V79.1498H1071.95V36.9498H1067.09V33.7098H1098.71V41.8698H1095.07V36.9498H1078.82V56.0298H1090.21V52.0498H1093.45V63.3798H1090.21V59.3398H1078.82V79.1598H1084.08V82.4598V82.4498ZM1039.25 36.9498V79.1498H1044.17V82.4498H1027.52V79.1498H1032.38V36.9498H1027.52V33.7098H1044.17V36.9498H1039.25ZM993.75 57.6398H995.84C999.97 57.6398 1003.1 56.6798 1005.21 54.7398C1007.32 52.8098 1008.38 49.9498 1008.38 46.1798C1008.38 42.6798 1007.42 40.2598 1005.52 38.9298C1003.61 37.5998 1000.09 36.9398 994.97 36.9398H993.76V57.6298L993.75 57.6398ZM993.75 60.9398V79.1398H998.67V82.4398H982.02V79.1398H986.87V36.9398H982.02V33.6998H999.28C1004.72 33.6998 1008.82 34.7098 1011.58 36.7298C1014.34 38.7498 1015.72 41.8298 1015.72 45.9598C1015.72 49.1998 1015.08 51.6798 1013.8 53.4098C1012.52 55.1398 1011.27 56.4198 1010.06 57.2498C1008.85 58.0798 1007.34 58.8298 1005.54 59.5098L1018.57 79.1198H1022.19V82.4398H1012.08L998.73 60.9398H993.74H993.75ZM944.08 64.5798H961.52L952.77 42.3398L944.08 64.5798ZM942.73 67.8198L938.35 79.1498H943.19V82.4498H931.53V79.1498H934.36L952.56 32.9098H956.47L974.67 79.1498H977.5V82.4498H962.8V79.1498H967.24L962.86 67.8198H942.72H942.73ZM904.09 37.4198H890.13V43.0198H886.42V33.7198H928.69V43.0198H924.98V37.4198H911.03V79.1498H915.88V82.4498H899.23V79.1498H904.09V37.4198ZM851.31 81.4398V72.1398H854.95L855.36 76.9898C856.3 77.5698 857.16 78.0698 857.92 78.4698C858.68 78.8798 859.49 79.2598 860.35 79.6198C861.92 80.1598 863.31 80.4298 864.53 80.4298C867.32 80.4298 869.59 79.5998 871.34 77.9398C873.09 76.2798 873.97 74.1398 873.97 71.5298C873.97 69.2798 873.55 67.6098 872.72 66.5098C871.89 65.4098 870.99 64.4898 870.02 63.7498C869.06 63.0098 867.81 62.1898 866.28 61.2898L862.84 59.3398C858.8 57.0498 855.92 54.8498 854.21 52.7298C852.5 50.6198 851.65 48.2098 851.65 45.5198C851.65 41.8398 853 38.7398 855.69 36.2498C858.38 33.7598 861.74 32.5098 865.73 32.5098C867.8 32.5098 869.65 32.6298 871.29 32.8798C872.93 33.1298 874.27 33.3698 875.3 33.6198C876.33 33.8698 877.41 34.1698 878.54 34.5298V43.0898H874.9L874.43 38.4398C873.85 38.0298 873.15 37.6498 872.34 37.2898C871.53 36.9298 870.6 36.5798 869.54 36.2398C868.48 35.8998 867.35 35.7298 866.14 35.7298C864.07 35.7298 862.3 36.5298 860.82 38.1198C859.34 39.7198 858.6 41.6798 858.6 44.0198C858.6 47.3498 860.8 50.2898 865.21 52.8498L868.71 54.7998C873.43 57.4498 876.64 59.8098 878.35 61.8798C880.06 63.9498 880.91 66.4898 880.91 69.4998C880.91 73.4998 879.39 76.8598 876.36 79.5798C873.33 82.2998 869.56 83.6598 865.07 83.6598C864.08 83.6598 863.02 83.6498 861.9 83.6298C860.78 83.6098 859.2 83.4298 857.18 83.0898C855.16 82.7498 853.2 82.1998 851.32 81.4398H851.31ZM845.11 82.4498H811.6V79.1498H816.46V36.9498H811.6V33.7098H843.62V41.8698H839.98V36.9498H823.33V55.6198H835.13V51.5798H838.36V62.9698H835.13V58.8598H823.33V78.8098H841.4V73.5498H845.11V82.4498ZM807.09 82.4498H773.04V79.1498H777.9V36.9498H773.04V33.7098H789.22V36.9498H784.77V78.8098H803.04V72.6798H807.09V82.4498ZM718.65 64.5798H736.09L727.34 42.3398L718.65 64.5798ZM717.3 67.8198L712.92 79.1498H717.76V82.4498H706.1V79.1498H708.93L727.13 32.9098H731.04L749.24 79.1498H752.07V82.4498H737.37V79.1498H741.81L737.43 67.8198H717.3ZM674.82 57.6398H676.91C681.04 57.6398 684.17 56.6798 686.28 54.7398C688.39 52.8098 689.45 49.9498 689.45 46.1798C689.45 42.6798 688.49 40.2598 686.59 38.9298C684.68 37.5998 681.16 36.9398 676.04 36.9398H674.83V57.6298L674.82 57.6398ZM674.82 60.9398V79.1398H679.74V82.4398H663.09V79.1398H667.95V36.9398H663.09V33.6998H680.35C685.79 33.6998 689.89 34.7098 692.65 36.7298C695.41 38.7498 696.79 41.8298 696.79 45.9598C696.79 49.1998 696.15 51.6798 694.87 53.4098C693.59 55.1398 692.34 56.4198 691.13 57.2498C689.92 58.0798 688.41 58.8298 686.61 59.5098L699.64 79.1198H703.26V82.4398H693.15L679.8 60.9398H674.81H674.82ZM657.83 82.4398H624.32V79.1398H629.18V36.9398H624.32V33.6998H656.34V41.8598H652.7V36.9398H636.05V55.6098H647.85V51.5698H651.08V62.9598H647.85V58.8498H636.05V78.7998H654.12V73.5398H657.83V82.4398ZM594.39 37.4098H580.43V43.0098H576.72V33.7098H618.99V43.0098H615.28V37.4098H601.33V79.1398H606.18V82.4398H589.53V79.1398H594.39V37.4098ZM536.95 58.8498V79.1398H541.8V82.4398H525.21V79.1398H530.07V36.9398H525.21V33.6998H541.8V36.9398H536.95V55.6098H559.67V36.9398H554.82V33.6998H571.47V36.9398H566.62V79.1398H571.47V82.4398H554.82V79.1398H559.67V58.8498H536.95ZM487.28 64.5798H504.72L495.97 42.3398L487.28 64.5798ZM485.93 67.8198L481.55 79.1498H486.39V82.4498H474.73V79.1498H477.56L495.76 32.9098H499.67L517.87 79.1498H520.7V82.4498H506V79.1498H510.44L506.06 67.8198H485.93ZM445.07 91.6198V82.6498H449.11V87.7098C449.74 88.0698 450.45 88.3598 451.23 88.5898C452.01 88.8098 452.72 88.9298 453.35 88.9298C455.28 88.9298 456.75 87.9698 457.77 86.0698C458.78 84.1598 459.29 81.2898 459.29 77.4698V36.9598H453.56V33.7198H470.61V36.9598H466.16V73.4298C466.16 80.3498 465.01 85.2198 462.72 88.0298C460.43 90.8398 456.47 92.2398 450.86 92.2398L448.03 92.0398L445.07 91.6398V91.6198ZM443.12 82.4498H409.61V79.1498H414.47V36.9498H409.61V33.7098H441.63V41.8698H437.99V36.9498H421.34V55.6198H433.14V51.5798H436.37V62.9698H433.14V58.8598H421.34V78.8098H439.41V73.5498H443.12V82.4498ZM373.21 81.4398V72.1398H376.85L377.26 76.9898C378.2 77.5698 379.06 78.0698 379.82 78.4698C380.58 78.8798 381.39 79.2598 382.25 79.6198C383.82 80.1598 385.22 80.4298 386.43 80.4298C389.22 80.4298 391.49 79.5998 393.24 77.9398C394.99 76.2798 395.87 74.1398 395.87 71.5298C395.87 69.2798 395.45 67.6098 394.62 66.5098C393.79 65.4098 392.89 64.4898 391.92 63.7498C390.96 63.0098 389.71 62.1898 388.18 61.2898L384.74 59.3398C380.7 57.0498 377.82 54.8498 376.11 52.7298C374.4 50.6198 373.55 48.2098 373.55 45.5198C373.55 41.8398 374.9 38.7398 377.59 36.2498C380.29 33.7598 383.64 32.5098 387.64 32.5098C389.71 32.5098 391.56 32.6298 393.2 32.8798C394.84 33.1298 396.18 33.3698 397.21 33.6198C398.24 33.8698 399.32 34.1698 400.45 34.5298V43.0898H396.81L396.34 38.4398C395.76 38.0298 395.06 37.6498 394.25 37.2898C393.44 36.9298 392.51 36.5798 391.45 36.2398C390.39 35.8998 389.26 35.7298 388.05 35.7298C385.98 35.7298 384.21 36.5298 382.73 38.1198C381.25 39.7198 380.51 41.6798 380.51 44.0198C380.51 47.3498 382.71 50.2898 387.12 52.8498L390.62 54.7998C395.34 57.4498 398.55 59.8098 400.26 61.8798C401.97 63.9498 402.82 66.4898 402.82 69.4998C402.82 73.4998 401.3 76.8598 398.27 79.5798C395.24 82.2998 391.47 83.6598 386.98 83.6598C385.99 83.6598 384.93 83.6498 383.81 83.6298C382.69 83.6098 381.11 83.4298 379.09 83.0898C377.07 82.7498 375.11 82.1998 373.23 81.4398H373.21ZM337.82 82.4498V74.2898H345.91V82.4498H337.82ZM304.59 37.4198H290.63V43.0198H286.92V33.7198H329.19V43.0198H325.48V37.4198H311.53V79.1498H316.38V82.4498H299.73V79.1498H304.58V37.4198H304.59ZM260.77 58.8598H263.33C267.46 58.8598 270.58 57.7898 272.67 55.6598C274.76 53.5198 275.8 50.4098 275.8 46.3198C275.8 42.8598 274.91 40.4298 273.14 39.0398C271.37 37.6498 268.32 36.9498 264.01 36.9498H260.77V58.8598ZM260.77 62.1598V79.1498H265.69V82.4498H249.04V79.1498H253.89V36.9498H249.04V33.7098H267.24C272.5 33.7098 276.45 34.7798 279.1 36.9098C281.75 39.0498 283.08 42.2698 283.08 46.5798C283.08 51.7498 281.34 55.6298 277.85 58.2398C274.37 60.8498 269.19 62.1498 262.31 62.1498H260.76L260.77 62.1598Z" fill="#141414"/>
<path d="M1279.24 154.67H1290.92L1285.06 139.77L1279.24 154.67ZM1278.34 156.84L1275.41 164.43H1278.65V166.64H1270.84V164.43H1272.74L1284.93 133.46H1287.55L1299.74 164.43H1301.64V166.64H1291.8V164.43H1294.77L1291.84 156.84H1278.36H1278.34ZM1237.01 136.16V164.42H1240.3V166.63H1229.15V164.42H1232.4V136.16H1229.15V133.99H1240.3V136.16H1237.01ZM1176.9 165.96V159.73H1179.34L1179.61 162.98C1180.24 163.37 1180.81 163.7 1181.33 163.97C1181.84 164.24 1182.38 164.5 1182.96 164.74C1184.01 165.1 1184.95 165.28 1185.76 165.28C1187.63 165.28 1189.15 164.72 1190.32 163.61C1191.49 162.5 1192.08 161.07 1192.08 159.32C1192.08 157.82 1191.8 156.69 1191.25 155.96C1190.69 155.22 1190.09 154.6 1189.44 154.11C1188.79 153.61 1187.96 153.06 1186.93 152.46L1184.63 151.15C1181.92 149.62 1180 148.14 1178.85 146.73C1177.71 145.31 1177.13 143.7 1177.13 141.9C1177.13 139.43 1178.03 137.36 1179.84 135.69C1181.65 134.02 1183.89 133.18 1186.57 133.18C1187.95 133.18 1189.2 133.26 1190.29 133.43C1191.39 133.6 1192.28 133.76 1192.98 133.93C1193.67 134.1 1194.39 134.3 1195.15 134.54V140.27H1192.71L1192.39 137.16C1192 136.89 1191.53 136.63 1190.99 136.39C1190.45 136.15 1189.82 135.92 1189.12 135.69C1188.41 135.46 1187.65 135.35 1186.84 135.35C1185.46 135.35 1184.27 135.88 1183.27 136.95C1182.28 138.02 1181.78 139.34 1181.78 140.9C1181.78 143.13 1183.26 145.1 1186.2 146.81L1188.55 148.12C1191.71 149.89 1193.86 151.48 1195.01 152.86C1196.15 154.24 1196.73 155.94 1196.73 157.96C1196.73 160.64 1195.71 162.89 1193.68 164.71C1191.65 166.53 1189.13 167.44 1186.12 167.44C1185.46 167.44 1184.75 167.44 1184 167.42C1183.25 167.4 1182.19 167.28 1180.84 167.06C1179.49 166.83 1178.18 166.47 1176.91 165.95L1176.9 165.96ZM1144.88 166.64H1122.44V164.43H1125.69V136.17H1122.44V134H1143.88V139.46H1141.44V136.16H1130.29V148.67H1138.19V145.96H1140.36V153.59H1138.19V150.84H1130.29V164.2H1142.39V160.68H1144.87V166.64H1144.88ZM1083.36 167.03L1066.36 140.73V164.43H1069.61V166.64H1060.13V164.43H1063.38V136.17H1060.13V134H1066.95L1084.24 160.41V136.17H1080.99V134H1090.47V136.17H1087.22V167.05L1083.37 167.03H1083.36ZM1012.26 165.28C1015.3 165.28 1017.75 163.93 1019.62 161.24C1021.49 158.55 1022.42 154.9 1022.42 150.29C1022.42 145.68 1021.5 142.12 1019.67 139.41C1017.83 136.7 1015.37 135.35 1012.27 135.35C1009.17 135.35 1006.72 136.71 1004.84 139.41C1002.96 142.12 1002.02 145.75 1002.02 150.29C1002.02 154.83 1002.96 158.43 1004.84 161.17C1006.72 163.91 1009.2 165.28 1012.27 165.28H1012.26ZM1012.26 167.45C1007.56 167.45 1003.87 165.91 1001.18 162.84C998.49 159.77 997.14 155.59 997.14 150.29C997.14 144.99 998.5 140.89 1001.2 137.81C1003.91 134.73 1007.6 133.18 1012.26 133.18C1016.92 133.18 1020.6 134.69 1023.28 137.72C1025.96 140.74 1027.3 144.94 1027.3 150.29C1027.3 155.64 1025.96 159.81 1023.28 162.86C1020.6 165.91 1016.93 167.44 1012.26 167.44V167.45ZM941.55 164.2H944.75C947.61 164.2 949.83 163.94 951.41 163.41C952.99 162.88 954.64 161.62 956.35 159.62C958.07 157.62 958.92 154.39 958.92 149.94C958.92 140.76 954.2 136.17 944.74 136.17H941.54V164.21L941.55 164.2ZM933.69 166.64V164.43H936.94V136.17H933.69V134H947.33C952.57 134 956.63 135.38 959.52 138.13C962.41 140.88 963.85 144.76 963.85 149.76C963.85 154.76 962.44 159.05 959.61 162.08C956.78 165.12 952.96 166.64 948.14 166.64H933.69ZM894.61 167.03L877.61 140.73V164.43H880.86V166.64H871.38V164.43H874.63V136.17H871.38V134H878.2L895.49 160.41V136.17H892.24V134H901.72V136.17H898.47V167.05L894.62 167.03H894.61ZM835.87 136.16V164.42H839.17V166.63H828.02V164.42H831.27V136.16H828.02V133.99H839.17V136.16H835.87ZM752.94 154.81V151.52H763.28V154.81H752.94ZM681.42 167.03L664.41 140.73V164.43H667.66V166.64H658.18V164.43H661.43V136.17H658.18V134H665L682.29 160.41V136.17H679.04V134H688.52V136.17H685.27V167.05L681.42 167.03ZM604.9 154.67H616.58L610.72 139.77L604.9 154.67ZM604 156.84L601.07 164.43H604.31V166.64H596.5V164.43H598.4L610.59 133.46H613.21L625.4 164.43H627.3V166.64H617.46V164.43H620.43L617.5 156.84H604.02H604ZM540.05 136.16H536.8V133.99H547.68V136.16H544.7V153.54C544.7 156.34 544.84 158.39 545.11 159.7C545.38 161.01 546.07 162.27 547.16 163.47C548.26 164.67 549.97 165.28 552.28 165.28C554.59 165.28 556.38 164.57 557.81 163.16C559.24 161.75 559.95 158.86 559.95 154.49V136.16H556.66V133.99H566.46V136.16H563.21V153.32C563.21 156.33 563.04 158.54 562.69 159.96C562.34 161.38 561.44 162.98 559.98 164.77C558.52 166.56 555.82 167.46 551.88 167.46C547.94 167.46 544.87 166.42 542.94 164.34C541.01 162.26 540.05 158.98 540.05 154.5V136.17V136.16ZM486.9 150.02H488.3C491.07 150.02 493.16 149.37 494.58 148.08C495.99 146.79 496.7 144.88 496.7 142.35C496.7 140 496.06 138.38 494.78 137.5C493.5 136.61 491.15 136.17 487.71 136.17H486.9V150.03V150.02ZM486.9 152.23V164.42H490.2V166.63H479.05V164.42H482.3V136.16H479.05V133.99H490.61C494.25 133.99 497 134.67 498.85 136.02C500.7 137.37 501.63 139.44 501.63 142.21C501.63 144.38 501.2 146.04 500.34 147.2C499.48 148.36 498.65 149.22 497.83 149.77C497.02 150.33 496.01 150.83 494.81 151.28L503.54 164.41H505.96V166.63H499.19L490.25 152.23H486.91H486.9ZM420.93 136.16H417.68V133.99H428.56V136.16H425.58V153.54C425.58 156.34 425.72 158.39 425.99 159.7C426.26 161.01 426.95 162.27 428.04 163.47C429.14 164.67 430.85 165.28 433.16 165.28C435.47 165.28 437.26 164.57 438.69 163.16C440.12 161.75 440.83 158.86 440.83 154.49V136.16H437.54V133.99H447.34V136.16H444.09V153.32C444.09 156.33 443.92 158.54 443.57 159.96C443.22 161.38 442.32 162.98 440.86 164.77C439.4 166.56 436.7 167.46 432.76 167.46C428.82 167.46 425.75 166.42 423.82 164.34C421.89 162.26 420.93 158.98 420.93 154.5V136.17V136.16ZM366.02 165.96V159.73H368.46L368.73 162.98C369.36 163.37 369.93 163.7 370.45 163.97C370.96 164.24 371.5 164.5 372.08 164.74C373.13 165.1 374.07 165.28 374.88 165.28C376.75 165.28 378.27 164.72 379.44 163.61C380.61 162.5 381.2 161.07 381.2 159.32C381.2 157.82 380.92 156.69 380.37 155.96C379.81 155.22 379.21 154.6 378.56 154.11C377.91 153.61 377.08 153.06 376.05 152.46L373.75 151.15C371.04 149.62 369.12 148.14 367.97 146.73C366.83 145.31 366.25 143.7 366.25 141.9C366.25 139.43 367.15 137.36 368.96 135.69C370.77 134.02 373.01 133.18 375.69 133.18C377.07 133.18 378.32 133.26 379.41 133.43C380.51 133.6 381.4 133.76 382.1 133.93C382.79 134.1 383.52 134.3 384.27 134.54V140.27H381.83L381.51 137.16C381.12 136.89 380.65 136.63 380.11 136.39C379.57 136.15 378.94 135.92 378.24 135.69C377.53 135.46 376.77 135.35 375.96 135.35C374.58 135.35 373.39 135.88 372.39 136.95C371.4 138.02 370.9 139.34 370.9 140.9C370.9 143.13 372.38 145.1 375.32 146.81L377.67 148.12C380.83 149.89 382.98 151.48 384.13 152.86C385.27 154.24 385.85 155.94 385.85 157.96C385.85 160.64 384.83 162.89 382.8 164.71C380.77 166.53 378.25 167.44 375.24 167.44C374.58 167.44 373.87 167.44 373.12 167.42C372.37 167.4 371.31 167.28 369.96 167.06C368.61 166.83 367.3 166.47 366.03 165.95L366.02 165.96ZM312.11 154.67H323.79L317.93 139.77L312.11 154.67ZM311.21 156.84L308.28 164.43H311.52V166.64H303.71V164.43H305.61L317.8 133.46H320.42L332.61 164.43H334.51V166.64H324.67V164.43H327.64L324.71 156.84H311.23H311.21ZM259.13 150.84H260.85C263.62 150.84 265.7 150.13 267.1 148.7C268.5 147.27 269.2 145.19 269.2 142.45C269.2 140.13 268.61 138.51 267.42 137.57C266.23 136.64 264.19 136.17 261.3 136.17H259.13V150.84ZM259.13 153.05V164.43H262.43V166.64H251.28V164.43H254.53V136.17H251.28V134H263.47C266.99 134 269.64 134.72 271.42 136.15C273.2 137.58 274.08 139.74 274.08 142.63C274.08 146.09 272.91 148.69 270.58 150.44C268.25 152.19 264.78 153.06 260.17 153.06H259.13V153.05Z" fill="#141414"/>
</g>
<defs>
<clipPath id="clip0_878_124">
<rect width="1301.62" height="199.94" fill="white"/>
</clipPath>
</defs>
</svg>
