<svg width="202" height="200" viewBox="0 0 202 200" fill="none" xmlns="http://www.w3.org/2000/svg">
<g clip-path="url(#clip0_878_124)">
<path fill-rule="evenodd" clip-rule="evenodd" d="M127.53 54.62L133.43 41.63C133.43 41.63 116.91 27.47 103.91 27.47C90.9102 27.47 82.6602 27.47 75.5702 36.91C68.4802 46.36 68.4802 51.08 68.4802 51.08C68.4802 51.08 44.8702 58.17 44.8702 81.8C44.8702 105.4 53.1202 108.94 61.3802 113.66C69.6702 118.39 72.0402 118.39 72.0402 118.39V134.94C72.0402 134.94 42.4802 133.75 42.4802 146.74C42.4802 159.73 43.6702 166.83 59.0202 170.36C74.3902 173.89 92.1002 171.54 101.55 170.36C110.99 169.18 112.16 169.18 112.16 169.18C112.16 169.18 128.69 169.18 141.7 165.64C154.67 162.1 159.41 144.39 159.41 144.39L160.58 132.59H146.41C146.41 132.59 141.7 145.57 139.33 152.66C136.98 159.73 125.14 163.27 125.14 163.27C125.14 163.27 139.33 146.74 139.33 129.06C139.33 111.32 113.36 108.95 113.36 108.95L86.2002 103.05L80.3002 62.91C80.3002 62.91 93.2802 62.91 100.35 65.28C107.46 67.65 114.52 77.08 114.52 77.08L127.52 62.91C127.52 62.91 114.52 52.27 101.55 52.27H81.4702C81.4702 52.27 81.4702 36.92 96.8202 36.92C112.17 36.92 127.52 54.64 127.52 54.64M69.6702 68.81V98.34C69.6702 98.34 56.6602 95.98 56.6602 82.98C56.6602 69.98 69.6702 68.81 69.6702 68.81ZM88.5602 121.95C88.5602 121.95 103.91 120.76 114.53 123.12C125.15 125.49 125.15 144.39 121.62 150.29C118.08 156.21 105.09 159.74 105.09 159.74C105.09 159.74 105.09 153.85 96.8302 149.14C88.5602 144.4 83.8402 144.4 83.8402 144.4L88.5702 121.96L88.5602 121.95ZM70.8502 149.13C70.8502 149.13 69.6702 158.55 62.5802 158.55C55.4902 158.55 50.7602 151.48 59.0302 147.92C67.3202 144.39 70.8502 149.13 70.8502 149.13ZM86.2102 156.2C79.1102 156.2 73.2002 156.2 72.0502 163.27C70.8502 170.36 90.9402 164.46 90.9402 164.46C90.9402 164.46 93.2902 156.2 86.2102 156.2ZM99.9102 197.86C96.3402 198.1 92.9002 198.37 89.7302 198.71C67.3102 201.06 43.6702 199.9 30.6902 180.99C17.7002 162.1 17.7002 137.3 17.7002 137.3C17.7002 137.3 -0.00976562 118.4 -0.00976562 93.61C-0.00976562 68.82 15.3302 53.44 31.8602 45.19C48.3802 36.92 48.3802 34.56 62.5702 18.02C76.7602 1.47999 94.4602 0.27999 94.4602 0.27999C94.4602 0.27999 97.4602 -0.0800095 101.56 0.0199905L106.99 0.65999C106.99 0.65999 124.7 1.82999 138.86 18.36C153.04 34.88 153.04 37.25 169.57 45.51C186.11 53.78 201.47 69.15 201.47 93.95C201.47 118.73 183.74 137.63 183.74 137.63C183.74 137.63 183.74 162.41 170.76 181.31C157.77 200.23 134.15 201.41 111.71 199.04C108.07 198.67 104.08 198.33 99.9102 198.04V197.84V197.86ZM99.9102 13.35C91.5102 13.64 75.0202 15.34 67.3102 23.95C56.6602 35.74 50.7502 41.65 36.5902 49.92C22.4102 58.19 8.25023 73.55 10.6202 93.62C12.9902 113.68 25.9802 138.49 25.9802 138.49C25.9802 138.49 29.5102 184.54 59.0202 189.27C72.2102 191.38 87.4902 191.35 101.55 190.59C115.11 191.7 129.75 191.62 142.41 189.61C171.92 184.86 175.47 138.82 175.47 138.82C175.47 138.82 188.45 114.01 190.82 93.95C193.18 73.87 179.02 58.51 164.86 50.24C150.68 41.97 144.78 36.07 134.14 24.27C125.87 15.07 107.6 13.74 99.9002 13.63V13.33L99.9102 13.35Z" fill="white"/>
</g>
<defs>
<clipPath id="clip0_878_124">
<rect width="202" height="200" fill="white"/>
</clipPath>
</defs>
</svg>
