<svg width="31" height="31" viewBox="0 0 31 31" fill="none" xmlns="http://www.w3.org/2000/svg">
<path d="M8.99805 0.411133C8.00349 0.411133 7.04966 0.806221 6.3464 1.50948C5.64313 2.21274 5.24805 3.16657 5.24805 4.16113V10.4111C3.92196 10.4111 2.65019 10.9379 1.71251 11.8756C0.774831 12.8133 0.248047 14.0851 0.248047 15.4111V26.6611C0.248047 27.6557 0.643135 28.6095 1.3464 29.3128C2.04966 30.016 3.00349 30.4111 3.99805 30.4111H18.998C18.4419 29.6718 18.0575 28.8177 17.873 27.9111H3.99805C3.66653 27.9111 3.34858 27.7794 3.11416 27.545C2.87974 27.3106 2.74805 26.9927 2.74805 26.6611V15.4111C2.74805 14.7481 3.01144 14.1122 3.48028 13.6434C3.94912 13.1745 4.58501 12.9111 5.24805 12.9111H17.873C18.0605 11.9861 18.4505 11.1361 18.998 10.4111H7.74805V4.16113C7.74805 3.82961 7.87974 3.51167 8.11416 3.27725C8.34858 3.04283 8.66653 2.91113 8.99805 2.91113H21.498C21.8296 2.91113 22.1475 3.04283 22.3819 3.27725C22.6164 3.51167 22.748 3.82961 22.748 4.16113V8.03613C23.153 7.95363 23.5705 7.91113 23.998 7.91113H25.248V4.16113C25.248 3.16657 24.853 2.21274 24.1497 1.50948C23.4464 0.806221 22.4926 0.411133 21.498 0.411133H8.99805ZM23.998 10.4111C23.0035 10.4111 22.0497 10.8062 21.3464 11.5095C20.6431 12.2127 20.248 13.1666 20.248 14.1611V26.6611C20.248 27.6557 20.6431 28.6095 21.3464 29.3128C22.0497 30.016 23.0035 30.4111 23.998 30.4111H26.498C27.4926 30.4111 28.4464 30.016 29.1497 29.3128C29.853 28.6095 30.248 27.6557 30.248 26.6611V14.1611C30.248 13.1666 29.853 12.2127 29.1497 11.5095C28.4464 10.8062 27.4926 10.4111 26.498 10.4111H23.998ZM22.748 14.1611C22.748 13.8296 22.8797 13.5117 23.1142 13.2772C23.3486 13.0428 23.6665 12.9111 23.998 12.9111H26.498C26.8296 12.9111 27.1475 13.0428 27.3819 13.2772C27.6164 13.5117 27.748 13.8296 27.748 14.1611V26.6611C27.748 26.9927 27.6164 27.3106 27.3819 27.545C27.1475 27.7794 26.8296 27.9111 26.498 27.9111H23.998C23.6665 27.9111 23.3486 27.7794 23.1142 27.545C22.8797 27.3106 22.748 26.9927 22.748 26.6611V14.1611ZM7.74805 16.6611C7.74805 16.9927 7.61635 17.3106 7.38193 17.545C7.14751 17.7794 6.82957 17.9111 6.49805 17.9111C6.16653 17.9111 5.84858 17.7794 5.61416 17.545C5.37974 17.3106 5.24805 16.9927 5.24805 16.6611C5.24805 16.3296 5.37974 16.0117 5.61416 15.7772C5.84858 15.5428 6.16653 15.4111 6.49805 15.4111C6.82957 15.4111 7.14751 15.5428 7.38193 15.7772C7.61635 16.0117 7.74805 16.3296 7.74805 16.6611ZM6.49805 22.9111C6.82957 22.9111 7.14751 22.7794 7.38193 22.545C7.61635 22.3106 7.74805 21.9927 7.74805 21.6611C7.74805 21.3296 7.61635 21.0117 7.38193 20.7772C7.14751 20.5428 6.82957 20.4111 6.49805 20.4111C6.16653 20.4111 5.84858 20.5428 5.61416 20.7772C5.37974 21.0117 5.24805 21.3296 5.24805 21.6611C5.24805 21.9927 5.37974 22.3106 5.61416 22.545C5.84858 22.7794 6.16653 22.9111 6.49805 22.9111ZM12.748 16.6611C12.748 16.9927 12.6164 17.3106 12.3819 17.545C12.1475 17.7794 11.8296 17.9111 11.498 17.9111C11.1665 17.9111 10.8486 17.7794 10.6142 17.545C10.3797 17.3106 10.248 16.9927 10.248 16.6611C10.248 16.3296 10.3797 16.0117 10.6142 15.7772C10.8486 15.5428 11.1665 15.4111 11.498 15.4111C11.8296 15.4111 12.1475 15.5428 12.3819 15.7772C12.6164 16.0117 12.748 16.3296 12.748 16.6611ZM11.498 22.9111C11.8296 22.9111 12.1475 22.7794 12.3819 22.545C12.6164 22.3106 12.748 21.9927 12.748 21.6611C12.748 21.3296 12.6164 21.0117 12.3819 20.7772C12.1475 20.5428 11.8296 20.4111 11.498 20.4111C11.1665 20.4111 10.8486 20.5428 10.6142 20.7772C10.3797 21.0117 10.248 21.3296 10.248 21.6611C10.248 21.9927 10.3797 22.3106 10.6142 22.545C10.8486 22.7794 11.1665 22.9111 11.498 22.9111Z" fill="#62717A"/>
</svg>
