<svg width="33" height="33" viewBox="0 0 33 33" fill="none" xmlns="http://www.w3.org/2000/svg">
<path d="M24.8451 1.74219H8.17839C4.49649 1.74219 1.51172 4.72695 1.51172 8.40885V25.0755C1.51172 28.7574 4.49649 31.7422 8.17839 31.7422H24.8451C28.527 31.7422 31.5117 28.7574 31.5117 25.0755V8.40885C31.5117 4.72695 28.527 1.74219 24.8451 1.74219Z" stroke="#62717A" stroke-width="2.4" stroke-linejoin="round"/>
<path d="M16.5117 23.411C20.1943 23.411 23.1796 20.4257 23.1796 16.7431C23.1796 13.0605 20.1943 10.0752 16.5117 10.0752C12.8291 10.0752 9.84375 13.0605 9.84375 16.7431C9.84375 20.4257 12.8291 23.411 16.5117 23.411Z" stroke="#62717A" stroke-width="2.4" stroke-linejoin="round"/>
<path d="M25.6803 9.24625C26.6018 9.24625 27.3488 8.49925 27.3488 7.57772C27.3488 6.65618 26.6018 5.90918 25.6803 5.90918C24.7587 5.90918 24.0117 6.65618 24.0117 7.57772C24.0117 8.49925 24.7587 9.24625 25.6803 9.24625Z" fill="#62717A"/>
</svg>
