<svg width="31" height="31" viewBox="0 0 31 31" fill="none" xmlns="http://www.w3.org/2000/svg">
<path d="M29.2664 20.6914L26.601 18.0126C25.8065 17.2205 24.7341 16.7739 23.6149 16.7691C22.4958 16.7643 21.4197 17.2017 20.6185 17.987C20.1909 18.4191 19.6269 18.688 19.0235 18.7473C18.4201 18.8067 17.8149 18.6528 17.3122 18.3121C15.3279 16.9812 13.6233 15.2713 12.2952 13.2797C11.9622 12.7688 11.8147 12.1582 11.8773 11.5507C11.94 10.9432 12.2091 10.376 12.6393 9.9446C13.4136 9.13862 13.8432 8.06005 13.8362 6.93972C13.8291 5.8194 13.3861 4.74635 12.6017 3.95023L9.93636 1.27146C9.13838 0.472215 8.05773 0.0234375 6.93115 0.0234375C5.80457 0.0234375 4.72392 0.472215 3.92594 1.27146L3.15904 2.04343C-0.839023 6.0616 -0.539775 14.5095 7.77862 22.8648C12.7944 27.907 17.8428 30.0184 21.9366 30.0184C23.1417 30.0587 24.3427 29.8576 25.4696 29.4267C26.5966 28.9959 27.627 28.3439 28.5007 27.5089L29.2688 26.7369C30.0655 25.9345 30.5127 24.8472 30.5123 23.7136C30.5118 22.5801 30.0637 21.4931 29.2664 20.6914ZM27.5533 25.0152L26.7852 25.7871C23.6352 28.953 16.6822 28.3746 9.4893 21.1443C2.29643 13.9141 1.71974 6.92124 4.86972 3.75541L5.63178 2.98466C5.9749 2.64106 6.43952 2.44814 6.92388 2.44814C7.40824 2.44814 7.87286 2.64106 8.21598 2.98466L10.8814 5.66343C11.2182 6.0037 11.4095 6.46283 11.4142 6.94282C11.419 7.42282 11.2369 7.88568 10.9068 8.23262C10.0881 9.06064 9.57747 10.1463 9.46035 11.3076C9.34323 12.469 9.62677 13.6355 10.2635 14.6118C11.7725 16.8813 13.713 18.8287 15.9734 20.3419C16.9419 20.9819 18.0996 21.2686 19.253 21.154C20.4065 21.0394 21.4859 20.5305 22.311 19.7124C22.6555 19.3767 23.1174 19.1903 23.5972 19.1933C24.077 19.1963 24.5366 19.3883 24.877 19.7282L27.5424 22.407C27.7142 22.5772 27.8508 22.7798 27.9443 23.0032C28.0379 23.2266 28.0866 23.4664 28.0876 23.7088C28.0886 23.9512 28.0419 24.1914 27.9502 24.4156C27.8585 24.6398 27.7236 24.8436 27.5533 25.0152Z" fill="#62717A"/>
</svg>
