<svg width="31" height="31" viewBox="0 0 31 31" fill="none" xmlns="http://www.w3.org/2000/svg">
<path d="M26.2902 4.69659C24.9081 3.3005 23.2619 2.19358 21.4475 1.44039C19.6331 0.687199 17.6869 0.302816 15.7224 0.30966C7.49125 0.30966 0.782713 7.0182 0.782713 15.2494C0.782713 17.8875 1.47618 20.4504 2.77266 22.7117L0.662109 30.4604L8.57668 28.38C10.7626 29.571 13.2199 30.2041 15.7224 30.2041C23.9536 30.2041 30.6621 23.4956 30.6621 15.2644C30.6621 11.2695 29.1093 7.51569 26.2902 4.69659ZM15.7224 27.6715C13.4913 27.6715 11.3053 27.0685 9.39075 25.9378L8.93849 25.6664L4.23497 26.9026L5.48623 22.3197L5.18472 21.8524C3.94514 19.8729 3.28694 17.5849 3.28522 15.2494C3.28522 8.40514 8.86311 2.82725 15.7073 2.82725C19.0239 2.82725 22.1445 4.12373 24.4812 6.47549C25.6382 7.62719 26.5551 8.99709 27.1788 10.5058C27.8024 12.0145 28.1204 13.6319 28.1144 15.2644C28.1445 22.1087 22.5666 27.6715 15.7224 27.6715ZM22.5365 18.385C22.1596 18.2041 20.3204 17.2996 19.9887 17.1639C19.642 17.0433 19.4008 16.983 19.1445 17.3448C18.8882 17.7217 18.1797 18.5659 17.9686 18.8071C17.7576 19.0634 17.5315 19.0936 17.1546 18.8976C16.7777 18.7167 15.5717 18.3097 14.1546 17.0433C13.039 16.0484 12.3003 14.8272 12.0742 14.4504C11.8631 14.0735 12.044 13.8775 12.24 13.6815C12.4058 13.5157 12.6169 13.2443 12.7978 13.0333C12.9787 12.8222 13.0541 12.6564 13.1747 12.4152C13.2953 12.1589 13.235 11.9479 13.1445 11.7669C13.0541 11.586 12.3003 9.74685 11.9988 8.99308C11.6973 8.26946 11.3807 8.35991 11.1546 8.34484H10.431C10.1747 8.34484 9.78271 8.43529 9.43598 8.81217C9.10432 9.18906 8.1395 10.0936 8.1395 11.9328C8.1395 13.772 9.4812 15.5509 9.66211 15.7921C9.84301 16.0484 12.3003 19.8172 16.039 21.4303C16.9284 21.8222 17.6219 22.0484 18.1646 22.2142C19.0541 22.5006 19.8681 22.4554 20.5164 22.3649C21.24 22.2594 22.7325 21.4604 23.034 20.586C23.3505 19.7117 23.3506 18.973 23.245 18.8071C23.1395 18.6413 22.9134 18.5659 22.5365 18.385Z" fill="#62717A"/>
</svg>
